<mxfile host="app.diagrams.net" modified="2022-09-13T12:18:14.946Z" agent="5.0 (X11)" etag="C2ij14C1DpwOz9uQGKbo" version="20.3.0" type="github">
  <diagram id="-fZA9QrkQrzrABnsWHQr" name="Page-1">
    <mxGraphModel dx="1342" dy="551" grid="1" gridSize="10" guides="1" tooltips="1" connect="1" arrows="1" fold="1" page="1" pageScale="1" pageWidth="850" pageHeight="1100" math="0" shadow="0">
      <root>
        <mxCell id="0" />
        <mxCell id="1" parent="0" />
        <mxCell id="NgFwrWxws-ZB1Rauv6lD-11" value="" style="edgeStyle=orthogonalEdgeStyle;rounded=0;orthogonalLoop=1;jettySize=auto;html=1;" edge="1" parent="1" source="NgFwrWxws-ZB1Rauv6lD-4" target="NgFwrWxws-ZB1Rauv6lD-10">
          <mxGeometry relative="1" as="geometry" />
        </mxCell>
        <mxCell id="NgFwrWxws-ZB1Rauv6lD-4" value="Pipeline report" style="rounded=1;whiteSpace=wrap;html=1;" vertex="1" parent="1">
          <mxGeometry x="185" y="340" width="120" height="60" as="geometry" />
        </mxCell>
        <mxCell id="NgFwrWxws-ZB1Rauv6lD-8" value="" style="edgeStyle=orthogonalEdgeStyle;rounded=0;orthogonalLoop=1;jettySize=auto;html=1;" edge="1" parent="1" source="NgFwrWxws-ZB1Rauv6lD-5" target="NgFwrWxws-ZB1Rauv6lD-6">
          <mxGeometry relative="1" as="geometry" />
        </mxCell>
        <mxCell id="NgFwrWxws-ZB1Rauv6lD-5" value="Raw metadata" style="rounded=1;whiteSpace=wrap;html=1;" vertex="1" parent="1">
          <mxGeometry x="40" y="300" width="120" height="60" as="geometry" />
        </mxCell>
        <mxCell id="NgFwrWxws-ZB1Rauv6lD-13" style="edgeStyle=orthogonalEdgeStyle;rounded=0;orthogonalLoop=1;jettySize=auto;html=1;exitX=1;exitY=0.5;exitDx=0;exitDy=0;entryX=0.25;entryY=0;entryDx=0;entryDy=0;" edge="1" parent="1" source="NgFwrWxws-ZB1Rauv6lD-6" target="NgFwrWxws-ZB1Rauv6lD-10">
          <mxGeometry relative="1" as="geometry" />
        </mxCell>
        <mxCell id="NgFwrWxws-ZB1Rauv6lD-6" value="Wrapped metadata" style="rounded=1;whiteSpace=wrap;html=1;" vertex="1" parent="1">
          <mxGeometry x="40" y="380" width="120" height="60" as="geometry" />
        </mxCell>
        <mxCell id="NgFwrWxws-ZB1Rauv6lD-9" value="" style="edgeStyle=orthogonalEdgeStyle;rounded=0;orthogonalLoop=1;jettySize=auto;html=1;" edge="1" parent="1" source="NgFwrWxws-ZB1Rauv6lD-7" target="NgFwrWxws-ZB1Rauv6lD-4">
          <mxGeometry relative="1" as="geometry" />
        </mxCell>
        <mxCell id="NgFwrWxws-ZB1Rauv6lD-61" value="" style="edgeStyle=orthogonalEdgeStyle;rounded=0;orthogonalLoop=1;jettySize=auto;html=1;" edge="1" parent="1" source="NgFwrWxws-ZB1Rauv6lD-7" target="NgFwrWxws-ZB1Rauv6lD-60">
          <mxGeometry relative="1" as="geometry" />
        </mxCell>
        <mxCell id="NgFwrWxws-ZB1Rauv6lD-7" value="Pipeline output files" style="rounded=1;whiteSpace=wrap;html=1;" vertex="1" parent="1">
          <mxGeometry x="185" y="260" width="120" height="60" as="geometry" />
        </mxCell>
        <mxCell id="NgFwrWxws-ZB1Rauv6lD-18" value="" style="edgeStyle=orthogonalEdgeStyle;rounded=0;orthogonalLoop=1;jettySize=auto;html=1;" edge="1" parent="1" source="NgFwrWxws-ZB1Rauv6lD-10" target="NgFwrWxws-ZB1Rauv6lD-17">
          <mxGeometry relative="1" as="geometry" />
        </mxCell>
        <mxCell id="NgFwrWxws-ZB1Rauv6lD-65" value="" style="edgeStyle=orthogonalEdgeStyle;rounded=0;orthogonalLoop=1;jettySize=auto;html=1;" edge="1" parent="1" source="NgFwrWxws-ZB1Rauv6lD-10" target="NgFwrWxws-ZB1Rauv6lD-48">
          <mxGeometry relative="1" as="geometry" />
        </mxCell>
        <mxCell id="NgFwrWxws-ZB1Rauv6lD-10" value="Annotated report" style="whiteSpace=wrap;html=1;rounded=1;" vertex="1" parent="1">
          <mxGeometry x="185" y="430" width="120" height="60" as="geometry" />
        </mxCell>
        <mxCell id="NgFwrWxws-ZB1Rauv6lD-64" value="" style="edgeStyle=orthogonalEdgeStyle;rounded=0;orthogonalLoop=1;jettySize=auto;html=1;" edge="1" parent="1" source="NgFwrWxws-ZB1Rauv6lD-16" target="NgFwrWxws-ZB1Rauv6lD-17">
          <mxGeometry relative="1" as="geometry" />
        </mxCell>
        <mxCell id="NgFwrWxws-ZB1Rauv6lD-16" value="Database file" style="whiteSpace=wrap;html=1;rounded=1;" vertex="1" parent="1">
          <mxGeometry x="340" y="520" width="120" height="60" as="geometry" />
        </mxCell>
        <mxCell id="NgFwrWxws-ZB1Rauv6lD-17" value="&lt;div&gt;Updated &lt;br&gt;&lt;/div&gt;&lt;div&gt;Database file&lt;/div&gt;" style="whiteSpace=wrap;html=1;rounded=1;" vertex="1" parent="1">
          <mxGeometry x="185" y="520" width="120" height="60" as="geometry" />
        </mxCell>
        <mxCell id="NgFwrWxws-ZB1Rauv6lD-24" value="" style="edgeStyle=orthogonalEdgeStyle;rounded=0;orthogonalLoop=1;jettySize=auto;html=1;" edge="1" parent="1" source="NgFwrWxws-ZB1Rauv6lD-20" target="NgFwrWxws-ZB1Rauv6lD-23">
          <mxGeometry relative="1" as="geometry" />
        </mxCell>
        <mxCell id="NgFwrWxws-ZB1Rauv6lD-30" style="edgeStyle=orthogonalEdgeStyle;rounded=0;orthogonalLoop=1;jettySize=auto;html=1;exitX=1;exitY=0.75;exitDx=0;exitDy=0;entryX=0;entryY=0.75;entryDx=0;entryDy=0;" edge="1" parent="1" source="NgFwrWxws-ZB1Rauv6lD-20" target="NgFwrWxws-ZB1Rauv6lD-21">
          <mxGeometry relative="1" as="geometry" />
        </mxCell>
        <mxCell id="NgFwrWxws-ZB1Rauv6lD-20" value="Renamed fastq files" style="rounded=1;whiteSpace=wrap;html=1;" vertex="1" parent="1">
          <mxGeometry x="185" y="80" width="120" height="60" as="geometry" />
        </mxCell>
        <mxCell id="NgFwrWxws-ZB1Rauv6lD-29" value="" style="edgeStyle=orthogonalEdgeStyle;rounded=0;orthogonalLoop=1;jettySize=auto;html=1;" edge="1" parent="1" source="NgFwrWxws-ZB1Rauv6lD-21" target="NgFwrWxws-ZB1Rauv6lD-20">
          <mxGeometry relative="1" as="geometry" />
        </mxCell>
        <mxCell id="NgFwrWxws-ZB1Rauv6lD-21" value="Raw fastq files" style="rounded=1;whiteSpace=wrap;html=1;" vertex="1" parent="1">
          <mxGeometry x="340" y="80" width="120" height="60" as="geometry" />
        </mxCell>
        <mxCell id="NgFwrWxws-ZB1Rauv6lD-25" value="" style="edgeStyle=orthogonalEdgeStyle;rounded=0;orthogonalLoop=1;jettySize=auto;html=1;" edge="1" parent="1" source="NgFwrWxws-ZB1Rauv6lD-23" target="NgFwrWxws-ZB1Rauv6lD-7">
          <mxGeometry relative="1" as="geometry" />
        </mxCell>
        <mxCell id="NgFwrWxws-ZB1Rauv6lD-28" style="edgeStyle=orthogonalEdgeStyle;rounded=0;orthogonalLoop=1;jettySize=auto;html=1;exitX=1;exitY=0.5;exitDx=0;exitDy=0;entryX=0;entryY=0.5;entryDx=0;entryDy=0;" edge="1" parent="1" source="NgFwrWxws-ZB1Rauv6lD-23" target="NgFwrWxws-ZB1Rauv6lD-27">
          <mxGeometry relative="1" as="geometry" />
        </mxCell>
        <mxCell id="NgFwrWxws-ZB1Rauv6lD-23" value="Intact&lt;br&gt; fastq-files" style="rounded=1;whiteSpace=wrap;html=1;" vertex="1" parent="1">
          <mxGeometry x="185" y="160" width="120" height="60" as="geometry" />
        </mxCell>
        <mxCell id="NgFwrWxws-ZB1Rauv6lD-32" value="" style="edgeStyle=orthogonalEdgeStyle;rounded=0;orthogonalLoop=1;jettySize=auto;html=1;" edge="1" parent="1" source="NgFwrWxws-ZB1Rauv6lD-27" target="NgFwrWxws-ZB1Rauv6lD-21">
          <mxGeometry relative="1" as="geometry" />
        </mxCell>
        <mxCell id="NgFwrWxws-ZB1Rauv6lD-27" value="&lt;div&gt;Compromised &lt;br&gt;&lt;/div&gt;&lt;div&gt;fastq files&lt;/div&gt;" style="rounded=1;whiteSpace=wrap;html=1;" vertex="1" parent="1">
          <mxGeometry x="340" y="160" width="120" height="60" as="geometry" />
        </mxCell>
        <mxCell id="NgFwrWxws-ZB1Rauv6lD-33" value="1" style="ellipse;whiteSpace=wrap;html=1;aspect=fixed;" vertex="1" parent="1">
          <mxGeometry x="440" y="80" width="20" height="20" as="geometry" />
        </mxCell>
        <mxCell id="NgFwrWxws-ZB1Rauv6lD-34" value="2" style="ellipse;whiteSpace=wrap;html=1;aspect=fixed;" vertex="1" parent="1">
          <mxGeometry x="285" y="80" width="20" height="20" as="geometry" />
        </mxCell>
        <mxCell id="NgFwrWxws-ZB1Rauv6lD-35" value="4" style="ellipse;whiteSpace=wrap;html=1;aspect=fixed;" vertex="1" parent="1">
          <mxGeometry x="440" y="160" width="20" height="20" as="geometry" />
        </mxCell>
        <mxCell id="NgFwrWxws-ZB1Rauv6lD-36" value="3" style="ellipse;whiteSpace=wrap;html=1;aspect=fixed;" vertex="1" parent="1">
          <mxGeometry x="285" y="160" width="20" height="20" as="geometry" />
        </mxCell>
        <mxCell id="NgFwrWxws-ZB1Rauv6lD-37" value="4" style="ellipse;whiteSpace=wrap;html=1;aspect=fixed;" vertex="1" parent="1">
          <mxGeometry x="285" y="260" width="20" height="20" as="geometry" />
        </mxCell>
        <mxCell id="NgFwrWxws-ZB1Rauv6lD-38" value="5" style="ellipse;whiteSpace=wrap;html=1;aspect=fixed;" vertex="1" parent="1">
          <mxGeometry x="285" y="340" width="20" height="20" as="geometry" />
        </mxCell>
        <mxCell id="NgFwrWxws-ZB1Rauv6lD-39" value="6" style="ellipse;whiteSpace=wrap;html=1;aspect=fixed;" vertex="1" parent="1">
          <mxGeometry x="285" y="430" width="20" height="20" as="geometry" />
        </mxCell>
        <mxCell id="NgFwrWxws-ZB1Rauv6lD-40" value="6.1" style="ellipse;whiteSpace=wrap;html=1;aspect=fixed;" vertex="1" parent="1">
          <mxGeometry x="440" y="520" width="20" height="20" as="geometry" />
        </mxCell>
        <mxCell id="NgFwrWxws-ZB1Rauv6lD-41" value="&lt;div&gt;4.1&lt;/div&gt;" style="ellipse;whiteSpace=wrap;html=1;aspect=fixed;" vertex="1" parent="1">
          <mxGeometry x="140" y="300" width="20" height="20" as="geometry" />
        </mxCell>
        <mxCell id="NgFwrWxws-ZB1Rauv6lD-42" value="5.1" style="ellipse;whiteSpace=wrap;html=1;aspect=fixed;" vertex="1" parent="1">
          <mxGeometry x="140" y="380" width="20" height="20" as="geometry" />
        </mxCell>
        <mxCell id="NgFwrWxws-ZB1Rauv6lD-43" value="7" style="ellipse;whiteSpace=wrap;html=1;aspect=fixed;" vertex="1" parent="1">
          <mxGeometry x="285" y="520" width="20" height="20" as="geometry" />
        </mxCell>
        <mxCell id="NgFwrWxws-ZB1Rauv6lD-56" value="" style="edgeStyle=orthogonalEdgeStyle;rounded=0;orthogonalLoop=1;jettySize=auto;html=1;" edge="1" parent="1" source="NgFwrWxws-ZB1Rauv6lD-48" target="NgFwrWxws-ZB1Rauv6lD-55">
          <mxGeometry relative="1" as="geometry" />
        </mxCell>
        <mxCell id="NgFwrWxws-ZB1Rauv6lD-48" value="&lt;div&gt;Filtered&lt;/div&gt;&lt;div&gt;pipeline report&lt;br&gt;&lt;/div&gt;" style="rounded=1;whiteSpace=wrap;html=1;" vertex="1" parent="1">
          <mxGeometry x="340" y="430" width="120" height="60" as="geometry" />
        </mxCell>
        <mxCell id="NgFwrWxws-ZB1Rauv6lD-49" value="8" style="ellipse;whiteSpace=wrap;html=1;aspect=fixed;" vertex="1" parent="1">
          <mxGeometry x="440" y="430" width="20" height="20" as="geometry" />
        </mxCell>
        <mxCell id="NgFwrWxws-ZB1Rauv6lD-55" value="Mutation&lt;br&gt;count report" style="rounded=1;whiteSpace=wrap;html=1;" vertex="1" parent="1">
          <mxGeometry x="490" y="430" width="120" height="60" as="geometry" />
        </mxCell>
        <mxCell id="NgFwrWxws-ZB1Rauv6lD-58" value="9" style="ellipse;whiteSpace=wrap;html=1;aspect=fixed;" vertex="1" parent="1">
          <mxGeometry x="590" y="430" width="20" height="20" as="geometry" />
        </mxCell>
        <mxCell id="NgFwrWxws-ZB1Rauv6lD-60" value="&lt;div&gt;Annotated &lt;br&gt;variant csv file&lt;br&gt;&lt;/div&gt;" style="whiteSpace=wrap;html=1;rounded=1;" vertex="1" parent="1">
          <mxGeometry x="330" y="260" width="120" height="60" as="geometry" />
        </mxCell>
        <mxCell id="NgFwrWxws-ZB1Rauv6lD-62" value="8.1" style="ellipse;whiteSpace=wrap;html=1;aspect=fixed;" vertex="1" parent="1">
          <mxGeometry x="430" y="260" width="20" height="20" as="geometry" />
        </mxCell>
      </root>
    </mxGraphModel>
  </diagram>
</mxfile>
